<svg xmlns="http://www.w3.org/2000/svg" viewBox="0 0 512 512" width="512" height="512">
  <defs>
    <linearGradient id="edgeNeon" x1="0%" y1="0%" x2="100%" y2="100%">
      <stop offset="0%" stop-color="#00f0ff" />
      <stop offset="30%" stop-color="#38bdf8" />
      <stop offset="65%" stop-color="#c084fc" />
      <stop offset="100%" stop-color="#fb7185" />
    </linearGradient>

    <linearGradient id="hNeonGrad" x1="0%" y1="0%" x2="100%" y2="0%">
      <stop offset="0%" stop-color="#22d3ee" />
      <stop offset="35%" stop-color="#a855f7" />
      <stop offset="70%" stop-color="#e11d48" />
      <stop offset="100%" stop-color="#fb7185" />
    </linearGradient>

    <linearGradient id="shTopL" x1="0%" y1="0%" x2="100%" y2="100%">
      <stop offset="0%" stop-color="#10192a" /><stop offset="100%" stop-color="#080d17" />
    </linearGradient>
    <linearGradient id="shTopR" x1="100%" y1="0%" x2="0%" y2="100%">
      <stop offset="0%" stop-color="#26102a" /><stop offset="100%" stop-color="#0e0612" />
    </linearGradient>
    <linearGradient id="shUpperL" x1="0%" y1="50%" x2="100%" y2="50%">
      <stop offset="0%" stop-color="#0c2030" /><stop offset="100%" stop-color="#07121c" />
    </linearGradient>
    <linearGradient id="shUpperR" x1="100%" y1="50%" x2="0%" y2="50%">
      <stop offset="0%" stop-color="#2c0d22" /><stop offset="100%" stop-color="#12040e" />
    </linearGradient>
    <linearGradient id="shMidL" x1="0%" y1="0%" x2="100%" y2="100%">
      <stop offset="0%" stop-color="#081827" /><stop offset="100%" stop-color="#050e18" />
    </linearGradient>
    <linearGradient id="shMidR" x1="100%" y1="0%" x2="0%" y2="100%">
      <stop offset="0%" stop-color="#2d0d24" /><stop offset="100%" stop-color="#130410" />
    </linearGradient>
    <linearGradient id="shBotL" x1="0%" y1="100%" x2="100%" y2="0%">
      <stop offset="0%" stop-color="#0f1628" /><stop offset="100%" stop-color="#070b16" />
    </linearGradient>
    <linearGradient id="shBotR" x1="100%" y1="100%" x2="0%" y2="0%">
      <stop offset="0%" stop-color="#260f1e" /><stop offset="100%" stop-color="#0f040c" />
    </linearGradient>
    <linearGradient id="shBotC" x1="50%" y1="100%" x2="50%" y2="0%">
      <stop offset="0%" stop-color="#1d0d29" /><stop offset="100%" stop-color="#0b0412" />
    </linearGradient>
    <linearGradient id="shCenter" x1="50%" y1="0%" x2="50%" y2="100%">
      <stop offset="0%" stop-color="#18112c" /><stop offset="100%" stop-color="#0f091f" />
    </linearGradient>

    <filter id="neonGlow" x="-20%" y="-20%" width="140%" height="140%">
      <feGaussianBlur stdDeviation="4.5" result="blur" />
      <feMerge>
        <feMergeNode in="blur" />
        <feMergeNode in="SourceGraphic" />
      </feMerge>
    </filter>

    <filter id="hDrop" x="-40%" y="-40%" width="180%" height="180%">
      <feDropShadow dx="0" dy="0" stdDeviation="6" flood-color="#a855f7" flood-opacity="0.9" />
      <feDropShadow dx="0" dy="0" stdDeviation="12" flood-color="#00f0ff" flood-opacity="0.6" />
    </filter>
  </defs>

  
  <!-- Obsidian Base Background -->
  <rect width="512" height="512" rx="116" fill="#09080e" />
  <circle cx="160" cy="180" r="150" fill="#00f0ff" opacity="0.10" filter="blur(40px)" />
  <circle cx="350" cy="190" r="150" fill="#e11d48" opacity="0.11" filter="blur(40px)" />
  <circle cx="256" cy="330" r="160" fill="#a855f7" opacity="0.12" filter="blur(45px)" />
  

  <!-- 10 Facets of D20 -->
  <g filter="url(#neonGlow)">
    <polygon points="256,46 74.1,151 256,142.6" fill="url(#shTopL)" stroke="url(#edgeNeon)" stroke-width="5" stroke-linejoin="round" />
    <polygon points="256,46 437.9,151 256,142.6" fill="url(#shTopR)" stroke="url(#edgeNeon)" stroke-width="5" stroke-linejoin="round" />
    <polygon points="74.1,151 256,142.6 162.5,315.4" fill="url(#shUpperL)" stroke="url(#edgeNeon)" stroke-width="5" stroke-linejoin="round" />
    <polygon points="437.9,151 256,142.6 349.5,315.4" fill="url(#shUpperR)" stroke="url(#edgeNeon)" stroke-width="5" stroke-linejoin="round" />
    <polygon points="74.1,151 74.1,361 162.5,315.4" fill="url(#shMidL)" stroke="url(#edgeNeon)" stroke-width="5" stroke-linejoin="round" />
    <polygon points="437.9,151 437.9,361 349.5,315.4" fill="url(#shMidR)" stroke="url(#edgeNeon)" stroke-width="5" stroke-linejoin="round" />
    <polygon points="74.1,361 256,466 162.5,315.4" fill="url(#shBotL)" stroke="url(#edgeNeon)" stroke-width="5" stroke-linejoin="round" />
    <polygon points="437.9,361 256,466 349.5,315.4" fill="url(#shBotR)" stroke="url(#edgeNeon)" stroke-width="5" stroke-linejoin="round" />
    <polygon points="162.5,315.4 349.5,315.4 256,466" fill="url(#shBotC)" stroke="url(#edgeNeon)" stroke-width="5" stroke-linejoin="round" />
    <polygon points="256,142.6 349.5,315.4 162.5,315.4" fill="url(#shCenter)" stroke="url(#edgeNeon)" stroke-width="6.5" stroke-linejoin="round" />
  </g>

  <!-- Luminous Vertices -->
  <circle cx="256" cy="46" r="4.5" fill="#00f0ff" />
  <circle cx="437.9" cy="151" r="4.5" fill="#c084fc" />
  <circle cx="437.9" cy="361" r="4.5" fill="#fb7185" />
  <circle cx="256" cy="466" r="4.5" fill="#f43f5e" />
  <circle cx="74.1" cy="361" r="4.5" fill="#38bdf8" />
  <circle cx="74.1" cy="151" r="4.5" fill="#00f0ff" />
  <circle cx="256" cy="142.6" r="5" fill="#38bdf8" />
  <circle cx="349.5" cy="315.4" r="5" fill="#fb7185" />
  <circle cx="162.5" cy="315.4" r="5" fill="#c084fc" />

  <!-- The Iconic 'H' in the Center of the D20 Face - Enlarged & Bold -->
  <g filter="url(#d20HDrop)">
    <path
      d="M 164 156
         L 226 156
         L 214 172
         L 214 236
         L 298 236
         L 298 172
         L 286 156
         L 348 156
         L 336 172
         L 336 340
         L 348 356
         L 286 356
         L 298 340
         L 298 276
         L 214 276
         L 214 340
         L 226 356
         L 164 356
         L 176 340
         L 176 172
         Z"
      fill="url(#hNeonGrad)"
      stroke="#ffffff"
      stroke-width="2.2"
      stroke-opacity="0.6"
    />
  </g>
  <line x1="220" y1="256" x2="292" y2="256" stroke="#ffffff" stroke-width="3" stroke-opacity="0.65" stroke-linecap="round" />
</svg>